<mxfile host="Electron" agent="Mozilla/5.0 (X11; Linux x86_64) AppleWebKit/537.36 (KHTML, like Gecko) draw.io/24.7.17 Chrome/128.0.6613.36 Electron/32.0.1 Safari/537.36" version="24.7.17">
  <diagram id="C5RBs43oDa-KdzZeNtuy" name="Page-1">
    <mxGraphModel dx="2058" dy="1894" grid="1" gridSize="10" guides="1" tooltips="1" connect="1" arrows="1" fold="1" page="1" pageScale="1" pageWidth="827" pageHeight="1169" math="0" shadow="0">
      <root>
        <mxCell id="WIyWlLk6GJQsqaUBKTNV-0" />
        <mxCell id="WIyWlLk6GJQsqaUBKTNV-1" parent="WIyWlLk6GJQsqaUBKTNV-0" />
        <mxCell id="kZ6d2eGOcdRaxLscn8Zi-75" value="Core Components" style="verticalAlign=top;align=left;spacingTop=8;spacingLeft=2;spacingRight=12;shape=cube;size=10;direction=south;fontStyle=4;html=1;whiteSpace=wrap;" parent="WIyWlLk6GJQsqaUBKTNV-1" vertex="1">
          <mxGeometry x="550" y="-120" width="460" height="410" as="geometry" />
        </mxCell>
        <mxCell id="kZ6d2eGOcdRaxLscn8Zi-74" value="System Spy" style="verticalAlign=top;align=left;spacingTop=8;spacingLeft=2;spacingRight=12;shape=cube;size=10;direction=south;fontStyle=4;html=1;whiteSpace=wrap;" parent="WIyWlLk6GJQsqaUBKTNV-1" vertex="1">
          <mxGeometry x="-30" y="50" width="460" height="530" as="geometry" />
        </mxCell>
        <mxCell id="kZ6d2eGOcdRaxLscn8Zi-73" value="System Control" style="verticalAlign=top;align=left;spacingTop=8;spacingLeft=2;spacingRight=12;shape=cube;size=10;direction=south;fontStyle=4;html=1;whiteSpace=wrap;" parent="WIyWlLk6GJQsqaUBKTNV-1" vertex="1">
          <mxGeometry x="530" y="377.5" width="610" height="492.5" as="geometry" />
        </mxCell>
        <mxCell id="kZ6d2eGOcdRaxLscn8Zi-72" value="Self Update Process" style="verticalAlign=top;align=left;spacingTop=8;spacingLeft=2;spacingRight=12;shape=cube;size=10;direction=south;fontStyle=4;html=1;whiteSpace=wrap;" parent="WIyWlLk6GJQsqaUBKTNV-1" vertex="1">
          <mxGeometry x="1130" y="40" width="350" height="260" as="geometry" />
        </mxCell>
        <mxCell id="kZ6d2eGOcdRaxLscn8Zi-12" value="System State Manager" style="shape=folder;fontStyle=1;spacingTop=10;tabWidth=40;tabHeight=14;tabPosition=left;html=1;whiteSpace=wrap;" parent="WIyWlLk6GJQsqaUBKTNV-1" vertex="1">
          <mxGeometry x="60" y="190" width="150" height="110" as="geometry" />
        </mxCell>
        <mxCell id="kZ6d2eGOcdRaxLscn8Zi-16" value="Reilient Connection Manager" style="shape=folder;fontStyle=1;spacingTop=10;tabWidth=40;tabHeight=14;tabPosition=left;html=1;whiteSpace=wrap;" parent="WIyWlLk6GJQsqaUBKTNV-1" vertex="1">
          <mxGeometry x="790" y="-80" width="160" height="90" as="geometry" />
        </mxCell>
        <mxCell id="kZ6d2eGOcdRaxLscn8Zi-17" value="Network Connection Manager" style="shape=folder;fontStyle=1;spacingTop=10;tabWidth=40;tabHeight=14;tabPosition=left;html=1;whiteSpace=wrap;" parent="WIyWlLk6GJQsqaUBKTNV-1" vertex="1">
          <mxGeometry x="820" y="90" width="160" height="90" as="geometry" />
        </mxCell>
        <mxCell id="kZ6d2eGOcdRaxLscn8Zi-20" value="PII Data Packager" style="shape=folder;fontStyle=1;spacingTop=10;tabWidth=40;tabHeight=14;tabPosition=left;html=1;whiteSpace=wrap;" parent="WIyWlLk6GJQsqaUBKTNV-1" vertex="1">
          <mxGeometry x="90" y="90" width="120" height="70" as="geometry" />
        </mxCell>
        <mxCell id="kZ6d2eGOcdRaxLscn8Zi-21" value="Data Security Implementation" style="shape=folder;fontStyle=1;spacingTop=10;tabWidth=40;tabHeight=14;tabPosition=left;html=1;whiteSpace=wrap;" parent="WIyWlLk6GJQsqaUBKTNV-1" vertex="1">
          <mxGeometry x="620" y="190" width="140" height="80" as="geometry" />
        </mxCell>
        <mxCell id="kZ6d2eGOcdRaxLscn8Zi-22" value="Use" style="endArrow=open;endSize=12;dashed=1;html=1;rounded=0;" parent="WIyWlLk6GJQsqaUBKTNV-1" source="kZ6d2eGOcdRaxLscn8Zi-20" target="kZ6d2eGOcdRaxLscn8Zi-21" edge="1">
          <mxGeometry width="160" relative="1" as="geometry">
            <mxPoint x="220" y="210" as="sourcePoint" />
            <mxPoint x="380" y="210" as="targetPoint" />
          </mxGeometry>
        </mxCell>
        <mxCell id="kZ6d2eGOcdRaxLscn8Zi-23" value="Extends" style="endArrow=block;endSize=16;endFill=0;html=1;rounded=0;" parent="WIyWlLk6GJQsqaUBKTNV-1" source="kZ6d2eGOcdRaxLscn8Zi-16" target="kZ6d2eGOcdRaxLscn8Zi-17" edge="1">
          <mxGeometry width="160" relative="1" as="geometry">
            <mxPoint x="220" y="210" as="sourcePoint" />
            <mxPoint x="380" y="210" as="targetPoint" />
          </mxGeometry>
        </mxCell>
        <mxCell id="kZ6d2eGOcdRaxLscn8Zi-24" value="System Information Publisher" style="shape=folder;fontStyle=1;spacingTop=10;tabWidth=40;tabHeight=14;tabPosition=left;html=1;whiteSpace=wrap;" parent="WIyWlLk6GJQsqaUBKTNV-1" vertex="1">
          <mxGeometry x="590" y="80" width="150" height="80" as="geometry" />
        </mxCell>
        <mxCell id="kZ6d2eGOcdRaxLscn8Zi-25" value="Use" style="endArrow=open;endSize=12;dashed=1;html=1;rounded=0;" parent="WIyWlLk6GJQsqaUBKTNV-1" source="kZ6d2eGOcdRaxLscn8Zi-24" target="kZ6d2eGOcdRaxLscn8Zi-20" edge="1">
          <mxGeometry x="0.0076" width="160" relative="1" as="geometry">
            <mxPoint x="163" y="280" as="sourcePoint" />
            <mxPoint x="203" y="340" as="targetPoint" />
            <mxPoint as="offset" />
          </mxGeometry>
        </mxCell>
        <mxCell id="kZ6d2eGOcdRaxLscn8Zi-26" value="Use" style="endArrow=open;endSize=12;dashed=1;html=1;rounded=0;" parent="WIyWlLk6GJQsqaUBKTNV-1" source="kZ6d2eGOcdRaxLscn8Zi-17" target="kZ6d2eGOcdRaxLscn8Zi-24" edge="1">
          <mxGeometry x="0.0076" width="160" relative="1" as="geometry">
            <mxPoint x="230" y="250" as="sourcePoint" />
            <mxPoint x="170" y="257" as="targetPoint" />
            <mxPoint as="offset" />
          </mxGeometry>
        </mxCell>
        <mxCell id="kZ6d2eGOcdRaxLscn8Zi-27" value="" style="endArrow=block;startArrow=block;endFill=1;startFill=1;html=1;rounded=0;" parent="WIyWlLk6GJQsqaUBKTNV-1" source="kZ6d2eGOcdRaxLscn8Zi-12" target="kZ6d2eGOcdRaxLscn8Zi-20" edge="1">
          <mxGeometry width="160" relative="1" as="geometry">
            <mxPoint x="220" y="270" as="sourcePoint" />
            <mxPoint x="380" y="270" as="targetPoint" />
          </mxGeometry>
        </mxCell>
        <mxCell id="kZ6d2eGOcdRaxLscn8Zi-28" value="Hardware Spy (CPU / RAM / GPU / HEAT)" style="shape=folder;fontStyle=1;spacingTop=10;tabWidth=40;tabHeight=14;tabPosition=left;html=1;whiteSpace=wrap;" parent="WIyWlLk6GJQsqaUBKTNV-1" vertex="1">
          <mxGeometry x="10" y="370" width="140" height="90" as="geometry" />
        </mxCell>
        <mxCell id="kZ6d2eGOcdRaxLscn8Zi-29" value="Lifecycle Manager&lt;br&gt;Up Time, Online/Offline" style="shape=folder;fontStyle=1;spacingTop=10;tabWidth=40;tabHeight=14;tabPosition=left;html=1;whiteSpace=wrap;" parent="WIyWlLk6GJQsqaUBKTNV-1" vertex="1">
          <mxGeometry x="250" y="250" width="150" height="60" as="geometry" />
        </mxCell>
        <mxCell id="kZ6d2eGOcdRaxLscn8Zi-30" value="Network Monitor" style="shape=folder;fontStyle=1;spacingTop=10;tabWidth=40;tabHeight=14;tabPosition=left;html=1;whiteSpace=wrap;" parent="WIyWlLk6GJQsqaUBKTNV-1" vertex="1">
          <mxGeometry x="130" y="480" width="130" height="70" as="geometry" />
        </mxCell>
        <mxCell id="kZ6d2eGOcdRaxLscn8Zi-31" value="" style="endArrow=diamondThin;endFill=0;endSize=24;html=1;rounded=0;" parent="WIyWlLk6GJQsqaUBKTNV-1" source="kZ6d2eGOcdRaxLscn8Zi-12" target="kZ6d2eGOcdRaxLscn8Zi-29" edge="1">
          <mxGeometry width="160" relative="1" as="geometry">
            <mxPoint x="220" y="320" as="sourcePoint" />
            <mxPoint x="380" y="320" as="targetPoint" />
          </mxGeometry>
        </mxCell>
        <mxCell id="kZ6d2eGOcdRaxLscn8Zi-32" value="" style="endArrow=diamondThin;endFill=0;endSize=24;html=1;rounded=0;" parent="WIyWlLk6GJQsqaUBKTNV-1" source="kZ6d2eGOcdRaxLscn8Zi-12" target="kZ6d2eGOcdRaxLscn8Zi-28" edge="1">
          <mxGeometry width="160" relative="1" as="geometry">
            <mxPoint x="220" y="310" as="sourcePoint" />
            <mxPoint x="261" y="340" as="targetPoint" />
          </mxGeometry>
        </mxCell>
        <mxCell id="kZ6d2eGOcdRaxLscn8Zi-33" value="" style="endArrow=diamondThin;endFill=0;endSize=24;html=1;rounded=0;" parent="WIyWlLk6GJQsqaUBKTNV-1" source="kZ6d2eGOcdRaxLscn8Zi-12" target="kZ6d2eGOcdRaxLscn8Zi-30" edge="1">
          <mxGeometry width="160" relative="1" as="geometry">
            <mxPoint x="230" y="320" as="sourcePoint" />
            <mxPoint x="271" y="350" as="targetPoint" />
          </mxGeometry>
        </mxCell>
        <mxCell id="kZ6d2eGOcdRaxLscn8Zi-35" value="File System Monitor" style="shape=folder;fontStyle=1;spacingTop=10;tabWidth=40;tabHeight=14;tabPosition=left;html=1;whiteSpace=wrap;" parent="WIyWlLk6GJQsqaUBKTNV-1" vertex="1">
          <mxGeometry x="200" y="350" width="136" height="60" as="geometry" />
        </mxCell>
        <mxCell id="kZ6d2eGOcdRaxLscn8Zi-36" value="" style="endArrow=diamondThin;endFill=0;endSize=24;html=1;rounded=0;" parent="WIyWlLk6GJQsqaUBKTNV-1" source="kZ6d2eGOcdRaxLscn8Zi-12" target="kZ6d2eGOcdRaxLscn8Zi-35" edge="1">
          <mxGeometry width="160" relative="1" as="geometry">
            <mxPoint x="163" y="310" as="sourcePoint" />
            <mxPoint x="228" y="510" as="targetPoint" />
            <Array as="points" />
          </mxGeometry>
        </mxCell>
        <mxCell id="kZ6d2eGOcdRaxLscn8Zi-37" value="System C2 Receiver" style="shape=folder;fontStyle=1;spacingTop=10;tabWidth=40;tabHeight=14;tabPosition=left;html=1;whiteSpace=wrap;" parent="WIyWlLk6GJQsqaUBKTNV-1" vertex="1">
          <mxGeometry x="737.5" y="435" width="155" height="80" as="geometry" />
        </mxCell>
        <mxCell id="kZ6d2eGOcdRaxLscn8Zi-38" value="Use" style="endArrow=open;endSize=12;dashed=1;html=1;rounded=0;" parent="WIyWlLk6GJQsqaUBKTNV-1" source="kZ6d2eGOcdRaxLscn8Zi-37" target="kZ6d2eGOcdRaxLscn8Zi-21" edge="1">
          <mxGeometry width="160" relative="1" as="geometry">
            <mxPoint x="424" y="252" as="sourcePoint" />
            <mxPoint x="500" y="262" as="targetPoint" />
          </mxGeometry>
        </mxCell>
        <mxCell id="kZ6d2eGOcdRaxLscn8Zi-39" value="Use" style="endArrow=open;endSize=12;dashed=1;html=1;rounded=0;" parent="WIyWlLk6GJQsqaUBKTNV-1" source="kZ6d2eGOcdRaxLscn8Zi-17" target="kZ6d2eGOcdRaxLscn8Zi-37" edge="1">
          <mxGeometry x="0.0076" width="160" relative="1" as="geometry">
            <mxPoint x="750" y="115" as="sourcePoint" />
            <mxPoint x="660" y="115" as="targetPoint" />
            <mxPoint as="offset" />
          </mxGeometry>
        </mxCell>
        <mxCell id="kZ6d2eGOcdRaxLscn8Zi-40" value="System Control Handler" style="shape=folder;fontStyle=1;spacingTop=10;tabWidth=40;tabHeight=14;tabPosition=left;html=1;whiteSpace=wrap;" parent="WIyWlLk6GJQsqaUBKTNV-1" vertex="1">
          <mxGeometry x="760" y="567.5" width="110" height="60" as="geometry" />
        </mxCell>
        <mxCell id="kZ6d2eGOcdRaxLscn8Zi-41" value="" style="endArrow=block;startArrow=block;endFill=1;startFill=1;html=1;rounded=0;" parent="WIyWlLk6GJQsqaUBKTNV-1" source="kZ6d2eGOcdRaxLscn8Zi-37" target="kZ6d2eGOcdRaxLscn8Zi-40" edge="1">
          <mxGeometry width="160" relative="1" as="geometry">
            <mxPoint x="730" y="280" as="sourcePoint" />
            <mxPoint x="890" y="280" as="targetPoint" />
          </mxGeometry>
        </mxCell>
        <mxCell id="kZ6d2eGOcdRaxLscn8Zi-42" value="Network Module&lt;div&gt;Endpoint Debug / Configuration&lt;/div&gt;" style="shape=folder;fontStyle=1;spacingTop=10;tabWidth=40;tabHeight=14;tabPosition=left;html=1;whiteSpace=wrap;" parent="WIyWlLk6GJQsqaUBKTNV-1" vertex="1">
          <mxGeometry x="580" y="567.5" width="160" height="70" as="geometry" />
        </mxCell>
        <mxCell id="kZ6d2eGOcdRaxLscn8Zi-43" value="Lifecycle Module&lt;br&gt;Stop / Restart System" style="shape=folder;fontStyle=1;spacingTop=10;tabWidth=40;tabHeight=14;tabPosition=left;html=1;whiteSpace=wrap;" parent="WIyWlLk6GJQsqaUBKTNV-1" vertex="1">
          <mxGeometry x="580" y="667.5" width="140" height="50" as="geometry" />
        </mxCell>
        <mxCell id="kZ6d2eGOcdRaxLscn8Zi-44" value="File System Module&lt;div&gt;File Purge / File Scan&lt;/div&gt;" style="shape=folder;fontStyle=1;spacingTop=10;tabWidth=40;tabHeight=14;tabPosition=left;html=1;whiteSpace=wrap;" parent="WIyWlLk6GJQsqaUBKTNV-1" vertex="1">
          <mxGeometry x="580" y="737.5" width="140" height="60" as="geometry" />
        </mxCell>
        <mxCell id="kZ6d2eGOcdRaxLscn8Zi-45" value="Dynamic Module Loader" style="shape=folder;fontStyle=1;spacingTop=10;tabWidth=40;tabHeight=14;tabPosition=left;html=1;whiteSpace=wrap;" parent="WIyWlLk6GJQsqaUBKTNV-1" vertex="1">
          <mxGeometry x="930" y="560" width="150" height="70" as="geometry" />
        </mxCell>
        <mxCell id="kZ6d2eGOcdRaxLscn8Zi-46" value="" style="endArrow=block;startArrow=block;endFill=1;startFill=1;html=1;rounded=0;" parent="WIyWlLk6GJQsqaUBKTNV-1" source="kZ6d2eGOcdRaxLscn8Zi-45" target="kZ6d2eGOcdRaxLscn8Zi-40" edge="1">
          <mxGeometry width="160" relative="1" as="geometry">
            <mxPoint x="873" y="507.5" as="sourcePoint" />
            <mxPoint x="839" y="577.5" as="targetPoint" />
          </mxGeometry>
        </mxCell>
        <mxCell id="kZ6d2eGOcdRaxLscn8Zi-47" value="Base Module Controller" style="shape=folder;fontStyle=1;spacingTop=10;tabWidth=40;tabHeight=14;tabPosition=left;html=1;whiteSpace=wrap;" parent="WIyWlLk6GJQsqaUBKTNV-1" vertex="1">
          <mxGeometry x="760" y="662.5" width="110" height="60" as="geometry" />
        </mxCell>
        <mxCell id="kZ6d2eGOcdRaxLscn8Zi-48" value="Custom Module Controller" style="shape=folder;fontStyle=1;spacingTop=10;tabWidth=40;tabHeight=14;tabPosition=left;html=1;whiteSpace=wrap;" parent="WIyWlLk6GJQsqaUBKTNV-1" vertex="1">
          <mxGeometry x="930" y="662.5" width="110" height="60" as="geometry" />
        </mxCell>
        <mxCell id="kZ6d2eGOcdRaxLscn8Zi-50" value="" style="endArrow=block;startArrow=block;endFill=1;startFill=1;html=1;rounded=0;" parent="WIyWlLk6GJQsqaUBKTNV-1" source="kZ6d2eGOcdRaxLscn8Zi-42" target="kZ6d2eGOcdRaxLscn8Zi-47" edge="1">
          <mxGeometry width="160" relative="1" as="geometry">
            <mxPoint x="873" y="507.5" as="sourcePoint" />
            <mxPoint x="839" y="577.5" as="targetPoint" />
          </mxGeometry>
        </mxCell>
        <mxCell id="kZ6d2eGOcdRaxLscn8Zi-51" value="" style="endArrow=block;startArrow=block;endFill=1;startFill=1;html=1;rounded=0;" parent="WIyWlLk6GJQsqaUBKTNV-1" source="kZ6d2eGOcdRaxLscn8Zi-43" target="kZ6d2eGOcdRaxLscn8Zi-47" edge="1">
          <mxGeometry width="160" relative="1" as="geometry">
            <mxPoint x="689" y="607.5" as="sourcePoint" />
            <mxPoint x="782" y="672.5" as="targetPoint" />
          </mxGeometry>
        </mxCell>
        <mxCell id="kZ6d2eGOcdRaxLscn8Zi-52" value="" style="endArrow=block;startArrow=block;endFill=1;startFill=1;html=1;rounded=0;" parent="WIyWlLk6GJQsqaUBKTNV-1" source="kZ6d2eGOcdRaxLscn8Zi-44" target="kZ6d2eGOcdRaxLscn8Zi-47" edge="1">
          <mxGeometry width="160" relative="1" as="geometry">
            <mxPoint x="720" y="677.5" as="sourcePoint" />
            <mxPoint x="770" y="689.5" as="targetPoint" />
          </mxGeometry>
        </mxCell>
        <mxCell id="kZ6d2eGOcdRaxLscn8Zi-53" value="" style="endArrow=block;startArrow=block;endFill=1;startFill=1;html=1;rounded=0;" parent="WIyWlLk6GJQsqaUBKTNV-1" source="kZ6d2eGOcdRaxLscn8Zi-40" target="kZ6d2eGOcdRaxLscn8Zi-47" edge="1">
          <mxGeometry width="160" relative="1" as="geometry">
            <mxPoint x="689" y="607.5" as="sourcePoint" />
            <mxPoint x="782" y="672.5" as="targetPoint" />
          </mxGeometry>
        </mxCell>
        <mxCell id="kZ6d2eGOcdRaxLscn8Zi-54" value="" style="endArrow=block;startArrow=block;endFill=1;startFill=1;html=1;rounded=0;" parent="WIyWlLk6GJQsqaUBKTNV-1" source="kZ6d2eGOcdRaxLscn8Zi-40" target="kZ6d2eGOcdRaxLscn8Zi-48" edge="1">
          <mxGeometry width="160" relative="1" as="geometry">
            <mxPoint x="825" y="637.5" as="sourcePoint" />
            <mxPoint x="825" y="672.5" as="targetPoint" />
          </mxGeometry>
        </mxCell>
        <mxCell id="kZ6d2eGOcdRaxLscn8Zi-58" value="" style="group" parent="WIyWlLk6GJQsqaUBKTNV-1" vertex="1" connectable="0">
          <mxGeometry x="950" y="777.5" width="90" height="70" as="geometry" />
        </mxCell>
        <mxCell id="kZ6d2eGOcdRaxLscn8Zi-55" value="package" style="shape=folder;fontStyle=1;spacingTop=10;tabWidth=40;tabHeight=14;tabPosition=left;html=1;whiteSpace=wrap;" parent="kZ6d2eGOcdRaxLscn8Zi-58" vertex="1">
          <mxGeometry x="20" y="20" width="70" height="50" as="geometry" />
        </mxCell>
        <mxCell id="kZ6d2eGOcdRaxLscn8Zi-56" value="package" style="shape=folder;fontStyle=1;spacingTop=10;tabWidth=40;tabHeight=14;tabPosition=left;html=1;whiteSpace=wrap;" parent="kZ6d2eGOcdRaxLscn8Zi-58" vertex="1">
          <mxGeometry x="10" y="10" width="70" height="50" as="geometry" />
        </mxCell>
        <mxCell id="kZ6d2eGOcdRaxLscn8Zi-57" value="Dynamic Modules" style="shape=folder;fontStyle=1;spacingTop=10;tabWidth=40;tabHeight=14;tabPosition=left;html=1;whiteSpace=wrap;" parent="kZ6d2eGOcdRaxLscn8Zi-58" vertex="1">
          <mxGeometry width="70" height="50" as="geometry" />
        </mxCell>
        <mxCell id="kZ6d2eGOcdRaxLscn8Zi-59" value="" style="endArrow=block;startArrow=block;endFill=1;startFill=1;html=1;rounded=0;" parent="WIyWlLk6GJQsqaUBKTNV-1" source="kZ6d2eGOcdRaxLscn8Zi-48" target="kZ6d2eGOcdRaxLscn8Zi-57" edge="1">
          <mxGeometry width="160" relative="1" as="geometry">
            <mxPoint x="879" y="637.5" as="sourcePoint" />
            <mxPoint x="941" y="672.5" as="targetPoint" />
          </mxGeometry>
        </mxCell>
        <mxCell id="kZ6d2eGOcdRaxLscn8Zi-60" value="" style="endArrow=block;startArrow=block;endFill=1;startFill=1;html=1;rounded=0;" parent="WIyWlLk6GJQsqaUBKTNV-1" source="kZ6d2eGOcdRaxLscn8Zi-45" target="kZ6d2eGOcdRaxLscn8Zi-48" edge="1">
          <mxGeometry width="160" relative="1" as="geometry">
            <mxPoint x="1050" y="707.5" as="sourcePoint" />
            <mxPoint x="1080" y="709.5" as="targetPoint" />
          </mxGeometry>
        </mxCell>
        <mxCell id="kZ6d2eGOcdRaxLscn8Zi-61" value="C2 Command Translator" style="shape=folder;fontStyle=1;spacingTop=10;tabWidth=40;tabHeight=14;tabPosition=left;html=1;whiteSpace=wrap;" parent="WIyWlLk6GJQsqaUBKTNV-1" vertex="1">
          <mxGeometry x="930" y="440" width="110" height="70" as="geometry" />
        </mxCell>
        <mxCell id="kZ6d2eGOcdRaxLscn8Zi-62" value="" style="endArrow=block;startArrow=block;endFill=1;startFill=1;html=1;rounded=0;" parent="WIyWlLk6GJQsqaUBKTNV-1" source="kZ6d2eGOcdRaxLscn8Zi-61" target="kZ6d2eGOcdRaxLscn8Zi-37" edge="1">
          <mxGeometry width="160" relative="1" as="geometry">
            <mxPoint x="813" y="310" as="sourcePoint" />
            <mxPoint x="779" y="380" as="targetPoint" />
          </mxGeometry>
        </mxCell>
        <mxCell id="kZ6d2eGOcdRaxLscn8Zi-63" value="Package Updater" style="shape=folder;fontStyle=1;spacingTop=10;tabWidth=40;tabHeight=14;tabPosition=left;html=1;whiteSpace=wrap;" parent="WIyWlLk6GJQsqaUBKTNV-1" vertex="1">
          <mxGeometry x="1220" y="85" width="130" height="65" as="geometry" />
        </mxCell>
        <mxCell id="kZ6d2eGOcdRaxLscn8Zi-65" value="" style="endArrow=block;startArrow=block;endFill=1;startFill=1;html=1;rounded=0;" parent="WIyWlLk6GJQsqaUBKTNV-1" source="kZ6d2eGOcdRaxLscn8Zi-63" target="kZ6d2eGOcdRaxLscn8Zi-37" edge="1">
          <mxGeometry width="160" relative="1" as="geometry">
            <mxPoint x="813" y="310" as="sourcePoint" />
            <mxPoint x="779" y="380" as="targetPoint" />
            <Array as="points">
              <mxPoint x="1070" y="220" />
            </Array>
          </mxGeometry>
        </mxCell>
        <mxCell id="kZ6d2eGOcdRaxLscn8Zi-66" value="File Transfer" style="shape=folder;fontStyle=1;spacingTop=10;tabWidth=40;tabHeight=14;tabPosition=left;html=1;whiteSpace=wrap;" parent="WIyWlLk6GJQsqaUBKTNV-1" vertex="1">
          <mxGeometry x="1170" y="190" width="110" height="70" as="geometry" />
        </mxCell>
        <mxCell id="kZ6d2eGOcdRaxLscn8Zi-67" value="Saftey Process starter for self update" style="shape=folder;fontStyle=1;spacingTop=10;tabWidth=40;tabHeight=14;tabPosition=left;html=1;whiteSpace=wrap;" parent="WIyWlLk6GJQsqaUBKTNV-1" vertex="1">
          <mxGeometry x="1300" y="190" width="110" height="70" as="geometry" />
        </mxCell>
        <mxCell id="kZ6d2eGOcdRaxLscn8Zi-68" value="" style="endArrow=block;startArrow=block;endFill=1;startFill=1;html=1;rounded=0;" parent="WIyWlLk6GJQsqaUBKTNV-1" source="kZ6d2eGOcdRaxLscn8Zi-66" target="kZ6d2eGOcdRaxLscn8Zi-63" edge="1">
          <mxGeometry width="160" relative="1" as="geometry">
            <mxPoint x="1140" y="200" as="sourcePoint" />
            <mxPoint x="1090" y="200" as="targetPoint" />
          </mxGeometry>
        </mxCell>
        <mxCell id="kZ6d2eGOcdRaxLscn8Zi-69" value="Use" style="endArrow=open;endSize=12;dashed=1;html=1;rounded=0;" parent="WIyWlLk6GJQsqaUBKTNV-1" source="kZ6d2eGOcdRaxLscn8Zi-66" target="kZ6d2eGOcdRaxLscn8Zi-17" edge="1">
          <mxGeometry x="0.0076" width="160" relative="1" as="geometry">
            <mxPoint x="831" y="160" as="sourcePoint" />
            <mxPoint x="832" y="230" as="targetPoint" />
            <mxPoint as="offset" />
          </mxGeometry>
        </mxCell>
        <mxCell id="kZ6d2eGOcdRaxLscn8Zi-70" value="" style="endArrow=block;startArrow=block;endFill=1;startFill=1;html=1;rounded=0;" parent="WIyWlLk6GJQsqaUBKTNV-1" source="kZ6d2eGOcdRaxLscn8Zi-67" target="kZ6d2eGOcdRaxLscn8Zi-63" edge="1">
          <mxGeometry width="160" relative="1" as="geometry">
            <mxPoint x="1241" y="195" as="sourcePoint" />
            <mxPoint x="1234" y="150" as="targetPoint" />
          </mxGeometry>
        </mxCell>
        <mxCell id="kZ6d2eGOcdRaxLscn8Zi-71" value="Use" style="endArrow=open;endSize=12;dashed=1;html=1;rounded=0;" parent="WIyWlLk6GJQsqaUBKTNV-1" source="kZ6d2eGOcdRaxLscn8Zi-66" target="kZ6d2eGOcdRaxLscn8Zi-21" edge="1">
          <mxGeometry width="160" relative="1" as="geometry">
            <mxPoint x="1180" y="320.0047368421052" as="sourcePoint" />
            <mxPoint x="640" y="348.4257894736842" as="targetPoint" />
            <Array as="points" />
          </mxGeometry>
        </mxCell>
      </root>
    </mxGraphModel>
  </diagram>
</mxfile>
